<svg width="20" height="24" viewBox="0 0 20 24" fill="none" xmlns="http://www.w3.org/2000/svg">
<path d="M1.1146 18.7181L0.516341 18.2658H0.51634L1.1146 18.7181ZM2.37705 15.1215L1.62705 15.1124V15.1215H2.37705ZM2.40354 12.947L3.15354 12.9561V12.947H2.40354ZM18.2606 18.7356L18.8678 18.2954L18.8678 18.2954L18.2606 18.7356ZM17.0456 15.1215L16.2956 15.1119V15.1215H17.0456ZM17.0721 13.0547L17.8221 13.0643V13.0547H17.0721ZM13.9079 19.7434C13.9079 19.3292 13.5721 18.9934 13.1579 18.9934C12.7437 18.9934 12.4079 19.3292 12.4079 19.7434H13.9079ZM6.96053 19.7434C6.96053 19.3292 6.62474 18.9934 6.21053 18.9934C5.79631 18.9934 5.46053 19.3292 5.46053 19.7434H6.96053ZM0.303855 5.93569C0.149727 6.32016 0.336456 6.75678 0.720926 6.91091C1.1054 7.06504 1.54202 6.87831 1.69615 6.49384L0.303855 5.93569ZM4.4128 3.39704C4.77747 3.2006 4.91384 2.74572 4.7174 2.38106C4.52096 2.01639 4.06609 1.88001 3.70142 2.07646L4.4128 3.39704ZM15.6525 2.08967C15.2899 1.88936 14.8336 2.0209 14.6333 2.38346C14.433 2.74602 14.5645 3.20231 14.9271 3.40262L15.6525 2.08967ZM17.6693 6.47692C17.8193 6.86302 18.2539 7.0544 18.64 6.90439C19.0261 6.75438 19.2175 6.31978 19.0675 5.93368L17.6693 6.47692ZM1.71287 19.1704C2.4217 18.2329 3.12705 16.8316 3.12705 15.1215H1.62705C1.62705 16.4128 1.09231 17.504 0.516341 18.2658L1.71287 19.1704ZM3.12699 15.1307L3.15349 12.9561L1.6536 12.9378L1.6271 15.1124L3.12699 15.1307ZM18.8678 18.2954C18.316 17.5343 17.7956 16.4322 17.7956 15.1215H16.2956C16.2956 16.8329 16.9726 18.2368 17.6534 19.1758L18.8678 18.2954ZM17.7956 15.1311L17.8221 13.0643L16.3222 13.0451L16.2957 15.1119L17.7956 15.1311ZM17.8221 13.0547C17.8221 8.54419 14.182 4.88158 9.68421 4.88158V6.38158C13.3469 6.38158 16.3221 9.36588 16.3221 13.0547H17.8221ZM17.8184 20.4934C18.4386 20.4934 18.8357 20.056 18.9994 19.6697C19.1626 19.2845 19.1913 18.7417 18.8678 18.2954L17.6534 19.1758C17.6239 19.1352 17.6191 19.1009 17.6185 19.0904C17.6182 19.0849 17.6187 19.0826 17.6186 19.0831C17.6186 19.0832 17.6185 19.0836 17.6184 19.084C17.6183 19.0844 17.6182 19.0846 17.6182 19.0846C17.6182 19.0845 17.6185 19.0839 17.6192 19.0827C17.6199 19.0815 17.6212 19.0794 17.6233 19.0765C17.6273 19.071 17.6359 19.0607 17.6512 19.0487C17.6852 19.0218 17.7449 18.9934 17.8184 18.9934V20.4934ZM3.15354 12.947C3.15354 9.31764 6.08078 6.38158 9.68421 6.38158V4.88158C5.24564 4.88158 1.65354 8.49595 1.65354 12.947H3.15354ZM1.55105 18.9934C1.62652 18.9934 1.68709 19.0231 1.72068 19.0501C1.74903 19.0729 1.75333 19.0885 1.75111 19.083C1.74918 19.0784 1.75041 19.0765 1.74986 19.0844C1.7492 19.094 1.74411 19.1291 1.71287 19.1704L0.51634 18.2658C0.178574 18.7126 0.203886 19.2643 0.36366 19.6531C0.523661 20.0425 0.920781 20.4934 1.55105 20.4934V18.9934ZM17.8184 18.9934H1.55105V20.4934H17.8184V18.9934ZM12.4079 19.7434C12.4079 21.0829 11.2348 22.25 9.68421 22.25V23.75C11.9706 23.75 13.9079 22.001 13.9079 19.7434H12.4079ZM9.68421 22.25C8.13363 22.25 6.96053 21.0829 6.96053 19.7434H5.46053C5.46053 22.001 7.39786 23.75 9.68421 23.75V22.25ZM11.25 3.31579C11.25 4.18055 10.549 4.88158 9.68421 4.88158V6.38158C11.3774 6.38158 12.75 5.00898 12.75 3.31579H11.25ZM9.68421 4.88158C8.81945 4.88158 8.11842 4.18055 8.11842 3.31579H6.61842C6.61842 5.00898 7.99102 6.38158 9.68421 6.38158V4.88158ZM8.11842 3.31579C8.11842 2.45103 8.81945 1.75 9.68421 1.75V0.25C7.99102 0.25 6.61842 1.6226 6.61842 3.31579H8.11842ZM9.68421 1.75C10.549 1.75 11.25 2.45103 11.25 3.31579H12.75C12.75 1.6226 11.3774 0.25 9.68421 0.25V1.75ZM1.69615 6.49384C2.22965 5.16301 3.18108 4.06055 4.4128 3.39704L3.70142 2.07646C2.14008 2.91753 0.959181 4.30099 0.303855 5.93569L1.69615 6.49384ZM14.9271 3.40262C16.1871 4.09872 17.1647 5.17817 17.6693 6.47692L19.0675 5.93368C18.4265 4.2839 17.197 2.94299 15.6525 2.08967L14.9271 3.40262Z" fill="white"/>
</svg>
